<svg width="24" height="24" viewBox="0 0 24 24" fill="none" xmlns="http://www.w3.org/2000/svg">
<path d="M16.65 20.2C16.65 17.87 14.33 15.97 11.46 15.97C8.59 15.97 6.27 17.86 6.27 20.2M15.2 3.73999C14.06 3.25999 12.81 3 11.5 3C6.25 3 2 7.25 2 12.5C2 17.75 6.25 22 11.5 22C16.75 22 21 17.75 21 12.5C21 11.19 20.73 9.92998 20.25 8.78998M15.2 3.73999C15.07 4.13999 15 4.56 15 5C15 5.75 15.21 6.46 15.58 7.06C15.78 7.4 16.04 7.70997 16.34 7.96997C17.04 8.60997 17.97 9 19 9C19.44 9 19.86 8.92998 20.25 8.78998M15.2 3.73999C15.39 3.15999 15.71 2.64002 16.13 2.21002C16.86 1.46002 17.88 1 19 1C20.18 1 21.25 1.51002 21.97 2.33002C22.61 3.04002 23 3.98 23 5C23 5.32 22.96 5.62999 22.88 5.92999C22.79 6.32999 22.63 6.72 22.42 7.06C21.94 7.87 21.17 8.49998 20.25 8.78998M20.49 4.97998H17.51M19 3.52002V6.51001M14.27 10.92C14.27 12.4719 13.0119 13.73 11.46 13.73C9.90808 13.73 8.65 12.4719 8.65 10.92C8.65 9.36806 9.90808 8.10999 11.46 8.10999C13.0119 8.10999 14.27 9.36806 14.27 10.92Z" stroke="black" stroke-width="1.5" stroke-miterlimit="10" stroke-linecap="round" stroke-linejoin="round"/>
</svg>
