<svg width="30" height="30" viewBox="0 0 30 30" fill="none" xmlns="http://www.w3.org/2000/svg">
<path d="M10.8763 12.3971V17.0074C10.8763 19.2855 12.7232 21.1323 15.0013 21.1323C17.2795 21.1323 19.1263 19.2855 19.1263 17.0074V11.1838C19.1263 9.97773 18.1486 9 16.9425 9C15.7364 9 14.7587 9.97773 14.7587 11.1838V16.7647M8.25012 3H21.7504C23.4073 3 24.7504 4.34318 24.7504 6.00006L24.7501 24.0001C24.75 25.6569 23.4069 27 21.75 27L8.24999 26.9999C6.59313 26.9999 5.24999 25.6568 5.25 23.9999L5.25012 5.99998C5.25013 4.34314 6.59327 3 8.25012 3Z" stroke="white" stroke-width="2" stroke-linecap="round"/>
</svg>
