<svg width="48" height="48" viewBox="0 0 48 48" fill="none" xmlns="http://www.w3.org/2000/svg">
<path d="M32.0008 4V16M32.0008 16H44.0008M32.0008 16L46.0008 2M44.0008 33.84V39.84C44.0031 40.397 43.889 40.9483 43.6659 41.4587C43.4427 41.9691 43.1154 42.4272 42.705 42.8037C42.2946 43.1803 41.81 43.467 41.2823 43.6454C40.7547 43.8239 40.1956 43.8901 39.6408 43.84C33.4865 43.1713 27.5748 41.0683 22.3808 37.7C17.5485 34.6293 13.4515 30.5323 10.3808 25.7C7.0008 20.4824 4.89733 14.542 4.24084 8.36C4.19086 7.80693 4.25659 7.24952 4.43384 6.72325C4.61109 6.19698 4.89598 5.71338 5.27037 5.30324C5.64477 4.89311 6.10045 4.56542 6.60842 4.34104C7.1164 4.11667 7.66552 4.00052 8.22084 4H14.2208C15.1915 3.99045 16.1324 4.33416 16.8684 4.96707C17.6043 5.59997 18.085 6.47889 18.2208 7.44C18.4741 9.36013 18.9437 11.2455 19.6208 13.06C19.8899 13.7758 19.9482 14.5538 19.7887 15.3018C19.6291 16.0497 19.2586 16.7362 18.7208 17.28L16.1808 19.82C19.028 24.8271 23.1738 28.9729 28.1808 31.82L30.7208 29.28C31.2646 28.7423 31.9512 28.3717 32.6991 28.2122C33.447 28.0527 34.225 28.1109 34.9408 28.38C36.7554 29.0571 38.6407 29.5268 40.5608 29.78C41.5324 29.9171 42.4196 30.4064 43.0539 31.155C43.6882 31.9036 44.0252 32.8592 44.0008 33.84Z" stroke="black" stroke-width="4" stroke-linecap="round" stroke-linejoin="round"/>
</svg>
