<svg width="30" height="30" viewBox="0 0 30 30" fill="none" xmlns="http://www.w3.org/2000/svg">
<g clip-path="url(#clip0_472_285)">
<path fill-rule="evenodd" clip-rule="evenodd" d="M14.9712 3.21538C14.0748 3.19931 13.1842 3.36026 12.3501 3.68901C11.5161 4.01777 10.7551 4.50786 10.1109 5.13122C9.46656 5.75458 8.95159 6.49892 8.59547 7.32165C8.24087 8.14084 8.05071 9.02168 8.03571 9.91414V19.2857C8.03571 20.4692 7.07631 21.4286 5.89286 21.4286H3.21429C1.43908 21.4286 0 19.9895 0 18.2143V13.9286C0 12.1534 1.43908 10.7143 3.21429 10.7143H4.82143V9.87707C4.84136 8.55789 5.12158 7.25556 5.64568 6.04479C6.16978 4.83401 6.92766 3.73854 7.87586 2.82116C8.82405 1.90376 9.94397 1.18249 11.1714 0.698664C12.3899 0.218359 13.6906 -0.0185768 15 0.00113638C16.3094 -0.0185768 17.6101 0.218359 18.8286 0.698664C20.056 1.18249 21.176 1.90376 22.1241 2.82116C23.0724 3.73854 23.8303 4.83401 24.3542 6.04479C24.8784 7.25556 25.1584 8.55789 25.1784 9.87707L25.1788 9.90135L25.1786 10.7143H26.7857C28.5609 10.7143 30 12.1534 30 13.9286V18.2143C30 19.9895 28.5609 21.4286 26.7857 21.4286H25.1786V22.5C25.1786 24.0628 24.5578 25.5617 23.4525 26.6668C22.5047 27.6146 21.2674 28.2062 19.9484 28.3556C19.3981 29.3368 18.348 30 17.1429 30H13.9286C12.1534 30 10.7143 28.5609 10.7143 26.7857C10.7143 25.0106 12.1534 23.5714 13.9286 23.5714H17.1429C18.3042 23.5714 19.3217 24.1873 19.8865 25.1104C20.3724 24.9986 20.8216 24.7521 21.1797 24.3941C21.6821 23.8918 21.9643 23.2104 21.9643 22.5V9.91416C21.9493 9.02171 21.7592 8.14084 21.4045 7.32165C21.0484 6.49892 20.5334 5.75458 19.8891 5.13122C19.2449 4.50786 18.4839 4.01777 17.6499 3.68901C16.8158 3.36026 15.9252 3.19931 15.0288 3.21538C15.0096 3.21572 14.9904 3.21572 14.9712 3.21538Z" fill="white"/>
</g>
<defs>
<clipPath id="clip0_472_285">
<rect width="30" height="30" fill="white"/>
</clipPath>
</defs>
</svg>
