<svg width="35" height="35" viewBox="0 0 35 35" fill="none" xmlns="http://www.w3.org/2000/svg">
<path d="M7.94737 20.2124L8.5899 20.5993L8.59158 20.5965L7.94737 20.2124ZM6.27029 22.9979L5.62776 22.611L5.62765 22.6112L6.27029 22.9979ZM7.84529 27.2708L7.60484 27.9812L7.60762 27.9821L7.84529 27.2708ZM27.1974 27.2708L26.962 26.5587L26.9597 26.5594L27.1974 27.2708ZM28.7724 22.9979L29.4155 22.612L29.4149 22.611L28.7724 22.9979ZM27.0953 20.2124L26.4455 20.5873L26.4528 20.5993L27.0953 20.2124ZM20.2265 4.6666L20.0174 5.38686C20.2919 5.46654 20.5877 5.38333 20.7804 5.17228C20.9731 4.96123 21.0291 4.65902 20.9248 4.39295L20.2265 4.6666ZM18.8265 4.37493L18.7335 5.11915L18.7363 5.11949L18.8265 4.37493ZM14.8307 4.6666L14.1324 4.39295C14.0281 4.65906 14.0842 4.96132 14.2769 5.17237C14.4697 5.38342 14.7656 5.46657 15.0401 5.38679L14.8307 4.6666ZM17.5286 3.49369C12.2873 3.49369 8.02862 7.75239 8.02862 12.9937H9.52862C9.52862 8.58082 13.1158 4.99369 17.5286 4.99369V3.49369ZM8.02862 12.9937V17.2083H9.52862V12.9937H8.02862ZM8.02862 17.2083C8.02862 17.5627 7.95026 18.0532 7.80986 18.559C7.66952 19.0645 7.48391 19.5252 7.30316 19.8284L8.59158 20.5965C8.86292 20.1413 9.09293 19.5447 9.2552 18.9602C9.41741 18.3759 9.52862 17.7434 9.52862 17.2083H8.02862ZM7.30485 19.8256L5.62776 22.611L6.91282 23.3847L8.5899 20.5993L7.30485 19.8256ZM5.62765 22.6112C5.00391 23.6478 4.8825 24.7928 5.25524 25.7994C5.62766 26.8052 6.46452 27.5952 7.60484 27.9812L8.08574 26.5604C7.33023 26.3046 6.86188 25.8186 6.6619 25.2786C6.46225 24.7394 6.50126 24.0687 6.91293 23.3845L5.62765 22.6112ZM7.60762 27.9821C14.0473 30.1337 20.9954 30.1337 27.435 27.9821L26.9597 26.5594C20.8285 28.6079 14.2141 28.6079 8.08296 26.5594L7.60762 27.9821ZM27.4328 27.9829C29.6564 27.2478 30.6237 24.6257 29.4155 22.612L28.1293 23.3837C28.846 24.5783 28.2675 26.1271 26.962 26.5587L27.4328 27.9829ZM29.4149 22.611L27.7378 19.8256L26.4528 20.5993L28.1298 23.3847L29.4149 22.611ZM27.7449 19.8376C27.5683 19.5314 27.3851 19.0677 27.2462 18.5612C27.107 18.0539 27.0286 17.5629 27.0286 17.2083H25.5286C25.5286 17.7432 25.6398 18.3752 25.7996 18.9579C25.9596 19.5415 26.1848 20.1351 26.4456 20.5872L27.7449 19.8376ZM27.0286 17.2083V12.9937H25.5286V17.2083H27.0286ZM27.0286 12.9937C27.0286 7.76697 22.7553 3.49369 17.5286 3.49369V4.99369C21.9269 4.99369 25.5286 8.5954 25.5286 12.9937H27.0286ZM20.4356 3.94634C19.951 3.80563 19.4443 3.69432 18.9168 3.63038L18.7363 5.11949C19.1713 5.17221 19.5979 5.26507 20.0174 5.38686L20.4356 3.94634ZM18.9196 3.63073C17.424 3.44378 15.9791 3.55173 14.6213 3.94641L15.0401 5.38679C16.1907 5.05231 17.4291 4.95609 18.7335 5.11914L18.9196 3.63073ZM15.529 4.94026C15.8425 4.14037 16.6208 3.5791 17.5286 3.5791V2.0791C15.9865 2.0791 14.6648 3.0345 14.1324 4.39295L15.529 4.94026ZM17.5286 3.5791C18.4365 3.5791 19.2148 4.14037 19.5282 4.94026L20.9248 4.39295C20.3925 3.0345 19.0708 2.0791 17.5286 2.0791V3.5791ZM21.1536 27.7958C21.1536 29.7878 19.5207 31.4208 17.5286 31.4208V32.9208C20.3491 32.9208 22.6536 30.6162 22.6536 27.7958H21.1536ZM17.5286 31.4208C16.5403 31.4208 15.6203 31.0101 14.9673 30.3571L13.9066 31.4178C14.8286 32.3397 16.1253 32.9208 17.5286 32.9208V31.4208ZM14.9673 30.3571C14.3143 29.7041 13.9036 28.7841 13.9036 27.7958H12.4036C12.4036 29.1991 12.9847 30.4958 13.9066 31.4178L14.9673 30.3571Z" fill="white"/>
</svg>
